<?xml version="1.0" standalone="no"?>
 <!DOCTYPE svg PUBLIC "-//W3C//DTD SVG 1.1//EN" 
 "http://www.w3.org/Graphics/SVG/1.1/DTD/svg11.dtd"> 
<svg xmlns="http://www.w3.org/2000/svg" version="1.1" 
    width="7.0485cm" height="10.1803cm" viewBox="0 0 27750 40080 ">
<title>SVG Picture created as MCP73831T-2ACI_breakout-brd.svg date 2018/01/28 10:45:10 </title>
  <desc>Picture generated by PCBNEW </desc>
<g style="fill:#000000; fill-opacity:1;stroke:#000000; stroke-opacity:1;
stroke-linecap:round; stroke-linejoin:round; "
 transform="translate(0 0) scale(1 1)">
</g>
<g style="fill:#000000; fill-opacity:0.0; 
stroke:#000000; stroke-width:-0.000393701; stroke-opacity:1; 
stroke-linecap:round; stroke-linejoin:round;">
</g>
<g style="fill:#000000; fill-opacity:1.0; 
stroke:#000000; stroke-width:0; stroke-opacity:1; 
stroke-linecap:round; stroke-linejoin:round;">
<circle cx="13897.6" cy="5954.72" r="649.606" /> 
</g>
<g style="fill:#000000; fill-opacity:1.0; 
stroke:#000000; stroke-width:39.3701; stroke-opacity:1; 
stroke-linecap:round; stroke-linejoin:round;">
</g>
<g style="fill:#000000; fill-opacity:1.0; 
stroke:#000000; stroke-width:0; stroke-opacity:1; 
stroke-linecap:round; stroke-linejoin:round;">
<circle cx="13897.6" cy="34655.5" r="649.606" /> 
</g>
<g style="fill:#000000; fill-opacity:1.0; 
stroke:#000000; stroke-width:39.3701; stroke-opacity:1; 
stroke-linecap:round; stroke-linejoin:round;">
</g>
<g style="fill:#000000; fill-opacity:1.0; 
stroke:#000000; stroke-width:0; stroke-opacity:1; 
stroke-linecap:round; stroke-linejoin:round;">
<polyline style="fill-rule:evenodd;"
points="16082,19124
16712,19124
16712,19911
16082,19911
16082,19124
" /> 
<polyline style="fill-rule:evenodd;"
points="16082,20698
16712,20698
16712,21486
16082,21486
16082,20698
" /> 
<polyline style="fill-rule:evenodd;"
points="12007,19124
12637,19124
12637,19911
12007,19911
12007,19124
" /> 
<polyline style="fill-rule:evenodd;"
points="12007,20698
12637,20698
12637,21486
12007,21486
12007,20698
" /> 
<polyline style="fill-rule:evenodd;"
points="14133,22883
14133,22372
14724,22372
14724,22883
14133,22883
" /> 
<polyline style="fill-rule:evenodd;"
points="15196,22883
15196,22372
15787,22372
15787,22883
15196,22883
" /> 
<polyline style="fill-rule:evenodd;"
points="27362,19261
23425,19261
23425,17293
27362,17293
27362,19261
" /> 
<polyline style="fill-rule:evenodd;"
points="27362,23277
23425,23277
23425,21309
27362,21309
27362,23277
" /> 
<polyline style="fill-rule:evenodd;"
points="433,4852
433,915
2401,915
2401,4852
433,4852
" /> 
<polyline style="fill-rule:evenodd;"
points="433,39655
433,35718
2401,35718
2401,39655
433,39655
" /> 
<polyline style="fill-rule:evenodd;"
points="19921,17962
19921,18631
19251,18631
19251,17962
19921,17962
" /> 
</g>
<g style="fill:#000000; fill-opacity:1.0; 
stroke:#000000; stroke-width:669.291; stroke-opacity:1; 
stroke-linecap:round; stroke-linejoin:round;">
</g>
<g style="fill:#000000; fill-opacity:0.0; 
stroke:#000000; stroke-width:669.291; stroke-opacity:1; 
stroke-linecap:round; stroke-linejoin:round;">
<path d="M19586 19297
L19586 19297
" />
<path d="M19586 20297
L19586 20297
" />
<path d="M19586 21297
L19586 21297
" />
<path d="M19586 22297
L19586 22297
" />
</g>
<g style="fill:#000000; fill-opacity:0.0; 
stroke:#000000; stroke-width:0; stroke-opacity:1; 
stroke-linecap:round; stroke-linejoin:round;">
</g>
<g style="fill:#000000; fill-opacity:1.0; 
stroke:#000000; stroke-width:0; stroke-opacity:1; 
stroke-linecap:round; stroke-linejoin:round;">
<polyline style="fill-rule:evenodd;"
points="13622,22923
13110,22923
13110,22332
13622,22332
13622,22923
" /> 
<polyline style="fill-rule:evenodd;"
points="13622,21860
13110,21860
13110,21269
13622,21269
13622,21860
" /> 
<polyline style="fill-rule:evenodd;"
points="14133,21820
14133,21309
14724,21309
14724,21820
14133,21820
" /> 
<polyline style="fill-rule:evenodd;"
points="15196,21820
15196,21309
15787,21309
15787,21820
15196,21820
" /> 
<polyline style="fill-rule:evenodd;"
points="13059,20807
13059,20551
13673,20551
13673,20807
13059,20807
" /> 
<polyline style="fill-rule:evenodd;"
points="13059,20433
13059,20177
13673,20177
13673,20433
13059,20433
" /> 
<polyline style="fill-rule:evenodd;"
points="13059,20059
13059,19803
13673,19803
13673,20059
13059,20059
" /> 
<polyline style="fill-rule:evenodd;"
points="14122,20059
14122,19803
14736,19803
14736,20059
14122,20059
" /> 
<polyline style="fill-rule:evenodd;"
points="14122,20807
14122,20551
14736,20551
14736,20807
14122,20807
" /> 
</g>
<g style="fill:#000000; fill-opacity:1.0; 
stroke:#000000; stroke-width:150; stroke-opacity:1; 
stroke-linecap:round; stroke-linejoin:round;">
</g>
<g style="fill:#000000; fill-opacity:0.0; 
stroke:#000000; stroke-width:150; stroke-opacity:1; 
stroke-linecap:round; stroke-linejoin:round;">
<path d="M19590 22293
L19586 22297
" />
<path d="M15492 22627
L17185 22627
" />
<path d="M17185 22627
L17362 22450
" />
<path d="M17362 22450
L17362 19635
" />
<path d="M17362 19635
L17244 19517
" />
<path d="M17244 19517
L16397 19517
" />
<path d="M13366 22627
L14429 22627
" />
<path d="M13366 20679
L13366 21564
" />
<path d="M14429 20679
L14429 21564
" />
</g>
<g style="fill:#000000; fill-opacity:1.0; 
stroke:#000000; stroke-width:100; stroke-opacity:1; 
stroke-linecap:round; stroke-linejoin:round;">
<polyline style="fill-rule:evenodd;"
points="15816,16416
13740,16416
13720,16420
13704,16431
13693,16448
13690,16466
13690,19553
13528,19553
13466,19615
13466,19867
13474,19867
13474,19995
13466,19995
13466,19999
13266,19999
13266,19995
13258,19995
13258,19867
13266,19867
13266,19615
13203,19553
13009,19553
12917,19591
12858,19650
12825,19617
12422,19617
12422,19625
12222,19625
12222,19617
11820,19617
11793,19644
11585,19644
11585,19074
11757,19074
11757,19355
11820,19417
12222,19417
12222,18936
12422,18936
12422,19417
12825,19417
12887,19355
12887,19074
12849,18982
12779,18912
12687,18874
12485,18874
12422,18936
12222,18936
12160,18874
11958,18874
11866,18912
11795,18982
11757,19074
11585,19074
11585,18671
11581,18651
11570,18635
11553,18624
11535,18621
315,18621
315,6625
13368,6625
13442,6751
13782,6864
14139,6839
14352,6751
14427,6625
13897,6096
13368,6625
315,6625
315,5839
12987,5839
13012,6196
13101,6409
13226,6484
13756,5954
14039,5954
14568,6484
14694,6409
14807,6070
14782,5713
14694,5499
14568,5425
14039,5954
13756,5954
13226,5425
13101,5499
12987,5839
315,5839
315,5283
13368,5283
13897,5813
14427,5283
14352,5158
14013,5044
13656,5069
13442,5158
13368,5283
315,5283
315,5074
383,5102
1254,5102
1317,5039
1317,2983
1517,2983
1517,5039
1579,5102
2451,5102
2543,5064
2613,4993
2651,4902
2651,3046
2589,2983
1517,2983
1317,2983
1309,2983
1309,2783
1317,2783
1317,2775
1517,2775
1517,2783
2589,2783
2651,2721
2651,865
2623,798
15816,798
15816,16416
" /> 
<polyline style="fill-rule:evenodd;"
points="27479,17071
27411,17043
25556,17043
25493,17105
25493,18177
25501,18177
25501,18377
25493,18377
25493,18385
25293,18385
25293,18377
23237,18377
23175,18440
23175,19311
23182,19329
20325,19329
20325,18710
20322,18692
20311,18675
20295,18664
20275,18660
20171,18660
20171,18459
20108,18397
19686,18397
19686,18405
19486,18405
19486,18397
19064,18397
19001,18459
19001,18660
18897,18660
18879,18664
18862,18674
18851,18691
18847,18710
18847,19684
17165,19684
17145,19688
17129,19699
17118,19716
17115,19734
17115,19999
16946,19999
16962,19961
16962,19680
16900,19617
16497,19617
16497,19625
16297,19625
16297,19617
15895,19617
15832,19680
15832,19961
15848,19999
14927,19999
14923,19995
14529,19995
14529,19999
14329,19999
14329,19995
14321,19995
14321,19867
14329,19867
14329,19615
14529,19615
14529,19867
14923,19867
14986,19804
14986,19753
14948,19661
14877,19591
14785,19553
14591,19553
14529,19615
14329,19615
14266,19553
14105,19553
14105,19074
15832,19074
15832,19355
15895,19417
16297,19417
16297,18936
16497,18936
16497,19417
16900,19417
16962,19355
16962,19074
16924,18982
16854,18912
16762,18874
16560,18874
16497,18936
16297,18936
16235,18874
16032,18874
15941,18912
15870,18982
15832,19074
14105,19074
14105,17912
19001,17912
19001,18134
19064,18197
19486,18197
19486,17775
19686,17775
19686,18197
20108,18197
20171,18134
20171,17912
20133,17820
20062,17750
19970,17712
19749,17712
19686,17775
19486,17775
19424,17712
19202,17712
19110,17750
19040,17820
19001,17912
14105,17912
14105,17243
23175,17243
23175,18115
23237,18177
25293,18177
25293,17105
25231,17043
23375,17043
23283,17081
23213,17151
23175,17243
14105,17243
14105,16831
27479,16831
27479,17071
" /> 
<polyline style="fill-rule:evenodd;"
points="12871,20241
13266,20241
13266,20230
13466,20230
13466,20241
13860,20241
13884,20217
14057,20217
14122,20230
14736,20230
14798,20218
14800,20217
17119,20217
17119,22350
17084,22384
15958,22384
15958,22372
15955,22354
15955,22253
15952,22235
15941,22219
15924,22207
15905,22203
15803,22203
15787,22200
15196,22200
15179,22203
14892,22203
14892,21837
14895,21820
14895,21727
14946,21727
14946,21870
14984,21962
15055,22032
15147,22070
15329,22070
15392,22008
15392,21664
15009,21664
14946,21727
14895,21727
14895,21309
14892,21291
14892,21259
14946,21259
14946,21402
15009,21464
15392,21464
15392,21121
15592,21121
15592,21464
15600,21464
15600,21664
15592,21664
15592,22008
15654,22070
15837,22070
15929,22032
15999,21962
16037,21870
16037,21736
16235,21736
16297,21673
16297,21192
16497,21192
16497,21673
16560,21736
16762,21736
16854,21698
16924,21627
16962,21535
16962,21255
16900,21192
16497,21192
16297,21192
16289,21192
16289,20992
16297,20992
16297,20511
16497,20511
16497,20992
16900,20992
16962,20930
16962,20649
16924,20557
16854,20486
16762,20448
16560,20448
16497,20511
16297,20511
16235,20448
16032,20448
15941,20486
15870,20557
15832,20649
15832,20930
15895,20992
15832,20992
15832,21059
15654,21059
15592,21121
15392,21121
15329,21059
15147,21059
15055,21097
14984,21167
14946,21259
14892,21259
14892,20876
14894,20873
14907,20807
14907,20551
14895,20488
14892,20483
14892,20482
14889,20464
14878,20447
14862,20436
14859,20431
14802,20393
14736,20379
14122,20379
14059,20391
14002,20428
13999,20432
13923,20432
13923,20431
13860,20369
13466,20369
13466,20379
13266,20379
13266,20369
12871,20369
12809,20431
12809,20471
12755,20471
12746,20473
12687,20448
12485,20448
12422,20511
12422,20992
12724,20992
12736,21000
12755,21004
12902,21004
12902,23041
12906,23059
12916,23076
12933,23087
12952,23091
13093,23091
13110,23094
13622,23094
13639,23091
15905,23091
15923,23087
15940,23077
15951,23060
15955,23041
15955,22900
15958,22883
15958,22871
17185,22871
17278,22852
17356,22799
17534,22622
17586,22543
17588,22534
17598,22486
19033,22486
19061,22554
19200,22736
19397,22850
19486,22810
19486,22397
19686,22397
19686,22810
19775,22850
19972,22736
20111,22554
20139,22486
20125,22455
23175,22455
23175,23327
23213,23419
23283,23489
23375,23527
25231,23527
25293,23465
25293,22393
23237,22393
23175,22455
20125,22455
20099,22397
19686,22397
19486,22397
19074,22397
19033,22486
17598,22486
17605,22450
17605,20217
18847,20217
18847,21860
18851,21878
18861,21895
18878,21906
18897,21910
19160,21910
19061,22039
19033,22108
19074,22197
19486,22197
19486,22189
19686,22189
19686,22197
20099,22197
20139,22108
20111,22039
20012,21910
20275,21910
20293,21906
20310,21896
20321,21879
20325,21860
20325,21240
23182,21240
23175,21259
23175,22130
23237,22193
25293,22193
25293,22185
25493,22185
25493,22193
25501,22193
25501,22393
25493,22393
25493,23465
25556,23527
27411,23527
27479,23499
27479,39772
2623,39772
2651,39705
2651,37849
2589,37787
1517,37787
1517,37794
1317,37794
1317,37787
1309,37787
1309,37587
1317,37587
1317,35531
1517,35531
1517,37587
2589,37587
2651,37524
2651,35668
2613,35576
2543,35506
2451,35468
1579,35468
1517,35531
1317,35531
1254,35468
383,35468
315,35496
315,35326
13368,35326
13442,35451
13782,35565
14139,35540
14352,35451
14427,35326
13897,34796
13368,35326
315,35326
315,34539
12987,34539
13012,34896
13101,35110
13226,35185
13756,34655
14039,34655
14568,35185
14694,35110
14807,34771
14782,34414
14694,34200
14568,34125
14039,34655
13756,34655
13226,34125
13101,34200
12987,34539
315,34539
315,33984
13368,33984
13897,34514
14427,33984
14352,33859
14013,33745
13656,33770
13442,33859
13368,33984
315,33984
315,21255
11757,21255
11757,21535
11795,21627
11866,21698
11958,21736
12160,21736
12222,21673
12222,21192
12422,21192
12422,21673
12485,21736
12687,21736
12779,21698
12849,21627
12887,21535
12887,21255
12825,21192
12422,21192
12222,21192
11820,21192
11757,21255
315,21255
315,20649
11757,20649
11757,20930
11820,20992
12222,20992
12222,20511
12160,20448
11958,20448
11866,20486
11795,20557
11757,20649
315,20649
315,20217
12847,20217
12871,20241
" /> 
</g>
<g style="fill:#FFFFFF; fill-opacity:1.0; 
stroke:#FFFFFF; stroke-width:100; stroke-opacity:1; 
stroke-linecap:round; stroke-linejoin:round;">
</g>
<g style="fill:#FFFFFF; fill-opacity:1.0; 
stroke:#FFFFFF; stroke-width:0; stroke-opacity:1; 
stroke-linecap:round; stroke-linejoin:round;">
<circle cx="13897.6" cy="5954.72" r="354.331" /> 
</g>
<g style="fill:#FFFFFF; fill-opacity:1.0; 
stroke:#FFFFFF; stroke-width:39.3701; stroke-opacity:1; 
stroke-linecap:round; stroke-linejoin:round;">
</g>
<g style="fill:#FFFFFF; fill-opacity:1.0; 
stroke:#FFFFFF; stroke-width:0; stroke-opacity:1; 
stroke-linecap:round; stroke-linejoin:round;">
<circle cx="13897.6" cy="34655.5" r="354.331" /> 
</g>
<g style="fill:#FFFFFF; fill-opacity:1.0; 
stroke:#FFFFFF; stroke-width:39.3701; stroke-opacity:1; 
stroke-linecap:round; stroke-linejoin:round;">
</g>
<g style="fill:#FFFFFF; fill-opacity:1.0; 
stroke:#FFFFFF; stroke-width:0; stroke-opacity:1; 
stroke-linecap:round; stroke-linejoin:round;">
<circle cx="19586.6" cy="18297.2" r="196.85" /> 
</g>
<g style="fill:#FFFFFF; fill-opacity:1.0; 
stroke:#FFFFFF; stroke-width:39.3701; stroke-opacity:1; 
stroke-linecap:round; stroke-linejoin:round;">
</g>
<g style="fill:#FFFFFF; fill-opacity:1.0; 
stroke:#FFFFFF; stroke-width:0; stroke-opacity:1; 
stroke-linecap:round; stroke-linejoin:round;">
<circle cx="19586.6" cy="19297.2" r="196.85" /> 
</g>
<g style="fill:#FFFFFF; fill-opacity:1.0; 
stroke:#FFFFFF; stroke-width:39.3701; stroke-opacity:1; 
stroke-linecap:round; stroke-linejoin:round;">
</g>
<g style="fill:#FFFFFF; fill-opacity:1.0; 
stroke:#FFFFFF; stroke-width:0; stroke-opacity:1; 
stroke-linecap:round; stroke-linejoin:round;">
<circle cx="19586.6" cy="20297.2" r="196.85" /> 
</g>
<g style="fill:#FFFFFF; fill-opacity:1.0; 
stroke:#FFFFFF; stroke-width:39.3701; stroke-opacity:1; 
stroke-linecap:round; stroke-linejoin:round;">
</g>
<g style="fill:#FFFFFF; fill-opacity:1.0; 
stroke:#FFFFFF; stroke-width:0; stroke-opacity:1; 
stroke-linecap:round; stroke-linejoin:round;">
<circle cx="19586.6" cy="21297.2" r="196.85" /> 
</g>
<g style="fill:#FFFFFF; fill-opacity:1.0; 
stroke:#FFFFFF; stroke-width:39.3701; stroke-opacity:1; 
stroke-linecap:round; stroke-linejoin:round;">
</g>
<g style="fill:#FFFFFF; fill-opacity:1.0; 
stroke:#FFFFFF; stroke-width:0; stroke-opacity:1; 
stroke-linecap:round; stroke-linejoin:round;">
<circle cx="19586.6" cy="22297.2" r="196.85" /> 
</g>
<g style="fill:#FFFFFF; fill-opacity:1.0; 
stroke:#FFFFFF; stroke-width:39.3701; stroke-opacity:1; 
stroke-linecap:round; stroke-linejoin:round;">
</g>
<g style="fill:#000000; fill-opacity:1.0; 
stroke:#000000; stroke-width:39.3701; stroke-opacity:1; 
stroke-linecap:round; stroke-linejoin:round;">
</g>
<g style="fill:#000000; fill-opacity:1.0; 
stroke:#000000; stroke-width:59.0551; stroke-opacity:1; 
stroke-linecap:round; stroke-linejoin:round;">
</g>
<g style="fill:#000000; fill-opacity:0.0; 
stroke:#000000; stroke-width:59.0551; stroke-opacity:1; 
stroke-linecap:round; stroke-linejoin:round;">
<path d="M118 39970
L118 600
" />
<path d="M27677 39970
L118 39970
" />
<path d="M27677 600
L27677 39970
" />
<path d="M118 600
L27677 600
" />
</g> 
</svg>
